<?xml version="1.0" encoding="UTF-8" standalone="no"?><!DOCTYPE svg PUBLIC "-//W3C//DTD SVG 1.1//EN" "http://www.w3.org/Graphics/SVG/1.1/DTD/svg11.dtd"><svg width="100%" height="100%" viewBox="0 0 512 256" version="1.1" xmlns="http://www.w3.org/2000/svg" xmlns:xlink="http://www.w3.org/1999/xlink" xml:space="preserve" style="fill-rule:evenodd;clip-rule:evenodd;stroke-linejoin:round;stroke-miterlimit:1.41421;"><g transform="matrix(1,0,0,1,62.79,17.5)"><text x="187.43px" y="87.121px" style="font-family:'NovaMonoForPowerline', 'NovaMono for Powerline', monospace;font-size:72px;">ranzen</text><text x="147px" y="171.121px" style="font-family:'NovaMonoForPowerline', 'NovaMono for Powerline', monospace;font-size:72px;">.tech</text></g><g><path d="M108.183,109.319c0.055,0.338 0.084,0.683 0.084,1.025c0,3.43 -2.821,6.248 -6.248,6.248c-3.426,0 -6.248,-2.818 -6.248,-6.248c0,-3.052 2.239,-5.679 5.253,-6.167c0.338,-0.055 0.68,-0.084 1.021,-0.084c3.04,0 5.653,2.226 6.138,5.226" style="fill:#45beed;fill-opacity:0;fill-rule:nonzero;stroke:#000;stroke-width:4px;"/><path d="M67.602,127.007c0.052,0.329 0.078,0.661 0.078,0.996c0,3.427 -2.818,6.248 -6.248,6.248c-3.426,0 -6.248,-2.821 -6.248,-6.248c0,-3.055 2.242,-5.685 5.259,-6.17c0.335,-0.055 0.677,-0.084 1.019,-0.084c3.049,0 5.672,2.245 6.14,5.258" style="fill:#45beed;fill-opacity:0;fill-rule:nonzero;stroke:#000;stroke-width:4px;"/><path d="M133.623,141.992c0.094,0.592 0.14,1.189 0.14,1.793c0,6.169 -5.073,11.248 -11.248,11.248c-6.168,0 -11.248,-5.079 -11.248,-11.248c0,-5.501 4.037,-10.235 9.468,-11.108c6.086,-0.978 11.904,3.228 12.888,9.315" style="fill:#45beed;fill-opacity:0;fill-rule:nonzero;stroke:#000;stroke-width:4px;"/><path d="M147.833,87.574c0.119,0.75 0.178,1.506 0.178,2.271c0,7.814 -6.426,14.248 -14.248,14.248c-7.814,0 -14.247,-6.434 -14.247,-14.248c0,-6.968 5.112,-12.964 11.992,-14.07c7.71,-1.239 15.079,4.089 16.325,11.799" style="fill:#45beed;fill-opacity:0;fill-rule:nonzero;stroke:#000;stroke-width:4px;"/><path d="M130.675,58.907l-0.131,0.095l-0.132,0.094l-0.132,0.094l-0.132,0.092l-0.133,0.092l-0.133,0.091l-0.134,0.09l-0.134,0.09l-0.134,0.089l-0.135,0.088l-0.135,0.087l-0.135,0.087l-0.136,0.086l-0.136,0.085l-0.136,0.084l-0.137,0.084l-0.137,0.083l-0.137,0.082l-0.138,0.081l-0.138,0.081l-0.138,0.079l-0.139,0.079l-0.138,0.079l-0.14,0.077l-0.139,0.077l-0.14,0.076l-0.14,0.076l-0.14,0.074l-0.141,0.074l-0.141,0.073l-0.141,0.073l-0.142,0.071l-0.141,0.071l-0.142,0.07l-0.143,0.069l-0.142,0.069l-0.143,0.068l-0.143,0.067l-0.144,0.066l-0.144,0.066l-0.143,0.065l-0.145,0.064l-0.144,0.063l-0.145,0.063l-0.145,0.062l-0.145,0.061l-0.145,0.06l-0.146,0.06l-0.146,0.059l-0.146,0.058l-0.146,0.057l-0.147,0.057l-0.146,0.056l-0.147,0.055l-0.147,0.054l-0.148,0.054l-0.147,0.053l-0.148,0.052l-0.148,0.051l-0.148,0.051l-0.149,0.05l-0.148,0.049l-0.149,0.048l-0.149,0.048l-0.149,0.047l-0.15,0.046l-0.149,0.045l-0.15,0.045l-0.15,0.044l-0.15,0.043l-0.15,0.042l-0.15,0.042l-0.151,0.041l-0.151,0.04l-0.151,0.039l-0.151,0.039l-0.151,0.038l-0.151,0.037l-0.151,0.036l-0.152,0.036l-0.152,0.035l-0.152,0.034l-0.152,0.034l-0.152,0.032l-0.152,0.032l-0.152,0.031l-0.153,0.031l-0.152,0.029l-0.153,0.029l-0.153,0.028l-0.153,0.028l-0.153,0.027l-0.153,0.025l-0.153,0.026l-0.154,0.024l-0.153,0.024l-0.154,0.023l-0.153,0.022l-0.154,0.021l-0.154,0.021l-0.154,0.02l-0.153,0.019l-0.154,0.019l-0.155,0.017l-0.154,0.017l-0.154,0.016l-0.154,0.016l-0.155,0.015l-0.154,0.013l-0.154,0.014l-0.309,0.024l-0.31,0.021l-0.309,0.018l-0.309,0.015l-0.31,0.013l-0.31,0.009l-0.309,0.006l-0.31,0.003l-0.31,0l-0.31,-0.002l-0.309,-0.006l-0.31,-0.009l-0.31,-0.012l-0.309,-0.014l-0.31,-0.018l-0.309,-0.021l-0.309,-0.023l-0.309,-0.027l-0.154,-0.015l-0.154,-0.015l-0.154,-0.016l-0.154,-0.017l-0.155,-0.017l-0.154,-0.018l-0.153,-0.019l-0.154,-0.02l-0.154,-0.02l-0.154,-0.022l-0.153,-0.021l-0.154,-0.023l-0.153,-0.024l-0.154,-0.024l-0.153,-0.025l-0.153,-0.025l-0.153,-0.027l-0.153,-0.027l-0.153,-0.028l-0.153,-0.029l-0.152,-0.029l-0.153,-0.03l-0.152,-0.031l-0.152,-0.032l-0.152,-0.032l-0.152,-0.033l-0.152,-0.034l-0.152,-0.035l-0.151,-0.035l-0.152,-0.037l-0.151,-0.036l-0.151,-0.038l-0.151,-0.038l-0.151,-0.04l-0.151,-0.039l-0.15,-0.041l-0.151,-0.041l-0.15,-0.043l-0.15,-0.042l-0.15,-0.044l-0.149,-0.044l-0.15,-0.046l-0.149,-0.045l-0.149,-0.047l-0.149,-0.047l-0.149,-0.049l-0.149,-0.048l-0.148,-0.05l-0.148,-0.05l-0.148,-0.051l-0.148,-0.052l-0.147,-0.053l-0.148,-0.053l-0.147,-0.054l-0.147,-0.055l-0.147,-0.056l-0.146,-0.056l-0.146,-0.057l-0.147,-0.058l-0.145,-0.059l-0.146,-0.059l-0.145,-0.06l-0.145,-0.061l-0.145,-0.061l-0.145,-0.063l-0.144,-0.063l-0.144,-0.063l-0.144,-0.065l-0.144,-0.065l-0.143,-0.066l-0.143,-0.067l-0.143,-0.068l-0.143,-0.068l-0.142,-0.069l-0.142,-0.07l-0.142,-0.07l-0.142,-0.072l-0.141,-0.072l-0.141,-0.072l-0.14,-0.074l-0.141,-0.074l-0.14,-0.075l-0.139,-0.076l-0.14,-0.076l-0.139,-0.078l-0.139,-0.078l-0.138,-0.078l-0.139,-0.08l-0.137,-0.08l-0.138,-0.081l-0.137,-0.082l-0.137,-0.082l-0.137,-0.083l-0.136,-0.084l-0.136,-0.085l-0.136,-0.086l-0.135,-0.086l-0.135,-0.087l-0.135,-0.087l-0.134,-0.089l-0.134,-0.089l-0.133,-0.09l-0.133,-0.091l-0.133,-0.091l-0.133,-0.092l-0.132,-0.093l-0.132,-0.094l-0.131,-0.094l-0.131,-0.095l-0.131,-0.096l0,-0.02l18.712,-18.712l18.886,18.886Zm-31.208,-0.907l0.036,0.018l0.123,0.062l0.124,0.06l0.125,0.061l0.124,0.059l0.125,0.059l0.125,0.059l0.125,0.057l0.126,0.057l0.126,0.057l0.126,0.056l0.126,0.055l0.126,0.054l0.127,0.054l0.126,0.053l0.127,0.053l0.128,0.051l0.127,0.052l0.128,0.05l0.128,0.05l0.128,0.049l0.128,0.049l0.128,0.048l0.129,0.047l0.129,0.047l0.128,0.045l0.13,0.046l0.129,0.044l0.13,0.044l0.129,0.044l0.13,0.043l0.13,0.042l0.13,0.041l0.131,0.041l0.13,0.04l0.131,0.039l0.131,0.039l0.131,0.038l0.131,0.038l0.131,0.037l0.132,0.036l0.131,0.035l0.132,0.035l0.132,0.034l0.132,0.034l0.132,0.033l0.133,0.032l0.132,0.032l0.133,0.031l0.132,0.03l0.133,0.03l0.133,0.029l0.133,0.028l0.133,0.028l0.133,0.027l0.134,0.026l0.133,0.026l0.134,0.025l0.134,0.024l0.133,0.024l0.134,0.023l0.134,0.023l0.134,0.022l0.134,0.021l0.135,0.02l0.134,0.02l0.134,0.019l0.135,0.019l0.134,0.018l0.135,0.017l0.135,0.017l0.134,0.016l0.135,0.015l0.135,0.014l0.135,0.014l0.135,0.014l0.13,0.012l0.276,0.024l0.27,0.02l0.271,0.019l0.27,0.015l0.271,0.013l0.271,0.01l0.271,0.008l0.271,0.005l0.271,0.002l0.272,0l0.271,-0.003l0.271,-0.005l0.271,-0.008l0.271,-0.011l0.271,-0.013l0.27,-0.016l0.271,-0.018l0.275,-0.022l0.131,-0.011l0.135,-0.012l0.135,-0.013l0.135,-0.014l0.135,-0.014l0.135,-0.015l0.135,-0.015l0.134,-0.016l0.135,-0.017l0.135,-0.018l0.134,-0.018l0.135,-0.018l0.134,-0.02l0.134,-0.02l0.135,-0.021l0.134,-0.021l0.134,-0.022l0.134,-0.023l0.134,-0.023l0.134,-0.024l0.133,-0.025l0.134,-0.025l0.133,-0.026l0.134,-0.027l0.133,-0.027l0.133,-0.028l0.133,-0.028l0.133,-0.03l0.133,-0.029l0.133,-0.031l0.132,-0.031l0.133,-0.032l0.132,-0.032l0.132,-0.034l0.132,-0.033l0.132,-0.035l0.132,-0.035l0.131,-0.036l0.132,-0.036l0.131,-0.037l0.131,-0.038l0.131,-0.038l0.131,-0.039l0.131,-0.04l0.131,-0.04l0.13,-0.041l0.13,-0.042l0.13,-0.042l0.13,-0.043l0.13,-0.044l0.129,-0.044l0.13,-0.045l0.129,-0.045l0.129,-0.047l0.129,-0.046l0.128,-0.048l0.129,-0.048l0.128,-0.049l0.128,-0.049l0.128,-0.051l0.128,-0.05l0.127,-0.052l0.127,-0.052l0.127,-0.053l0.127,-0.053l0.127,-0.054l0.126,-0.055l0.126,-0.055l0.126,-0.056l0.126,-0.057l0.126,-0.057l0.125,-0.058l0.125,-0.059l0.125,-0.059l0.124,-0.06l0.107,-0.052l-12.45,-12.45l-12.322,12.322Z"/><path d="M168.517,159.485l-11.423,-11.423l11.813,-11.812l-23.626,0l11.832,-8.169l-12.059,-7.973l24.081,0l-12.041,-12.04l11.423,-11.423l31.273,31.274l-31.273,31.566Z" style="fill:#45beed;fill-opacity:0;fill-rule:nonzero;"/><path d="M199.79,127.919l-31.273,31.566l-11.423,-11.423l11.813,-11.812l-23.626,0l11.832,-8.169l-12.059,-7.973l24.081,0l-12.041,-12.04l11.423,-11.423l31.273,31.274Zm-37.039,-19.851l9.212,9.212l0.214,0.231l0.194,0.246l0.175,0.261l0.153,0.274l0.131,0.286l0.109,0.294l0.085,0.303l0.062,0.308l0.037,0.312l0.012,0.313l-0.012,0.314l-0.037,0.312l-0.062,0.308l-0.085,0.303l-0.109,0.294l-0.131,0.285l-0.153,0.274l-0.175,0.262l-0.194,0.246l-0.214,0.231l-0.23,0.213l-0.247,0.195l-0.261,0.174l-0.274,0.153l-0.285,0.132l-0.295,0.109l-0.302,0.085l-0.308,0.061l-0.312,0.037l-0.314,0.012l-10.778,0l0.962,0.637l0.254,0.182l0.239,0.202l0.222,0.219l0.204,0.236l0.186,0.252l0.165,0.265l0.144,0.278l0.121,0.287l0.099,0.297l0.076,0.303l0.052,0.308l0.027,0.311l0.003,0.312l-0.021,0.312l-0.045,0.309l-0.07,0.305l-0.093,0.298l-0.116,0.29l-0.138,0.28l-0.16,0.269l-0.18,0.255l-0.2,0.24l-0.218,0.224l-0.234,0.207l-0.25,0.187l-1.27,0.877l10.791,0l0.314,0.012l0.312,0.037l0.308,0.061l0.302,0.085l0.295,0.109l0.285,0.132l0.274,0.153l0.261,0.174l0.247,0.195l0.231,0.213l0.213,0.231l0.194,0.246l0.175,0.262l0.153,0.274l0.132,0.285l0.108,0.294l0.086,0.303l0.061,0.308l0.037,0.312l0.012,0.314l-0.012,0.313l-0.037,0.312l-0.061,0.308l-0.086,0.303l-0.108,0.294l-0.132,0.285l-0.153,0.275l-0.175,0.261l-0.194,0.246l-0.213,0.231l-8.985,8.984l5.752,5.753l25.643,-25.883l-25.629,-25.63l-5.766,5.766Z"/><path d="M149.675,178.197c-21.055,-20.105 -54.639,-20.105 -75.694,0l37.782,37.782l37.912,-37.782Z" style="fill:#50ae48;fill-opacity:0;fill-rule:nonzero;"/><path d="M112.148,163.119l0.32,0.003l0.32,0.005l0.32,0.006l0.32,0.008l0.32,0.01l0.32,0.012l0.32,0.014l0.32,0.016l0.32,0.017l0.319,0.02l0.32,0.021l0.319,0.023l0.32,0.025l0.319,0.026l0.319,0.029l0.319,0.03l0.319,0.032l0.318,0.034l0.319,0.036l0.318,0.038l0.318,0.04l0.318,0.041l0.318,0.043l0.317,0.045l0.317,0.047l0.317,0.049l0.317,0.051l0.317,0.052l0.316,0.055l0.316,0.056l0.315,0.058l0.316,0.059l0.315,0.062l0.315,0.064l0.314,0.065l0.315,0.067l0.313,0.069l0.314,0.071l0.313,0.073l0.313,0.074l0.312,0.077l0.312,0.078l0.312,0.08l0.311,0.082l0.311,0.084l0.311,0.085l0.31,0.088l0.309,0.089l0.309,0.091l0.309,0.093l0.308,0.095l0.308,0.096l0.308,0.099l0.306,0.1l0.307,0.102l0.306,0.104l0.305,0.106l0.305,0.108l0.304,0.109l0.304,0.112l0.303,0.113l0.303,0.115l0.302,0.117l0.301,0.119l0.301,0.12l0.3,0.123l0.3,0.124l0.299,0.126l0.299,0.128l0.298,0.13l0.297,0.131l0.297,0.134l0.295,0.135l0.296,0.137l0.294,0.139l0.294,0.141l0.294,0.142l0.292,0.145l0.292,0.146l0.291,0.148l0.29,0.15l0.29,0.152l0.289,0.154l0.288,0.156l0.288,0.157l0.286,0.159l0.286,0.161l0.285,0.163l0.284,0.165l0.284,0.166l0.282,0.169l0.282,0.17l0.281,0.172l0.28,0.174l0.28,0.176l0.278,0.178l0.278,0.179l0.276,0.181l0.276,0.183l0.275,0.185l0.274,0.187l0.273,0.189l0.272,0.19l0.271,0.193l0.271,0.194l0.269,0.196l0.268,0.198l0.268,0.2l0.266,0.201l0.266,0.204l0.264,0.205l0.263,0.207l0.263,0.209l0.261,0.211l0.261,0.212l0.259,0.215l0.258,0.216l0.258,0.218l0.256,0.22l0.255,0.222l0.254,0.223l0.253,0.226l0.252,0.227l0.25,0.229l0.25,0.231l0.248,0.233l0.248,0.235l-37.912,37.782l-37.782,-37.782l0.247,-0.235l0.248,-0.233l0.25,-0.231l0.251,-0.229l0.252,-0.227l0.252,-0.226l0.254,-0.223l0.256,-0.222l0.256,-0.22l0.257,-0.218l0.258,-0.216l0.26,-0.215l0.26,-0.212l0.261,-0.211l0.263,-0.209l0.263,-0.207l0.265,-0.205l0.265,-0.204l0.267,-0.201l0.267,-0.2l0.268,-0.198l0.27,-0.196l0.27,-0.194l0.271,-0.193l0.272,-0.19l0.273,-0.189l0.274,-0.187l0.275,-0.185l0.276,-0.183l0.277,-0.181l0.277,-0.179l0.279,-0.178l0.279,-0.176l0.28,-0.174l0.281,-0.172l0.282,-0.17l0.283,-0.169l0.283,-0.166l0.284,-0.165l0.285,-0.163l0.286,-0.161l0.287,-0.159l0.287,-0.157l0.288,-0.156l0.289,-0.154l0.29,-0.152l0.29,-0.15l0.291,-0.148l0.292,-0.146l0.293,-0.145l0.293,-0.142l0.294,-0.141l0.295,-0.139l0.295,-0.137l0.296,-0.135l0.296,-0.134l0.298,-0.131l0.297,-0.13l0.299,-0.128l0.299,-0.126l0.3,-0.124l0.3,-0.123l0.301,-0.12l0.302,-0.119l0.302,-0.117l0.302,-0.115l0.304,-0.113l0.303,-0.112l0.305,-0.109l0.304,-0.108l0.306,-0.106l0.306,-0.104l0.306,-0.102l0.307,-0.1l0.307,-0.099l0.308,-0.096l0.308,-0.095l0.309,-0.093l0.309,-0.091l0.31,-0.089l0.31,-0.088l0.31,-0.085l0.311,-0.084l0.311,-0.082l0.312,-0.08l0.312,-0.078l0.312,-0.077l0.313,-0.074l0.313,-0.073l0.314,-0.071l0.314,-0.069l0.314,-0.067l0.314,-0.065l0.315,-0.064l0.315,-0.062l0.316,-0.059l0.315,-0.058l0.316,-0.056l0.317,-0.055l0.316,-0.052l0.317,-0.051l0.317,-0.049l0.317,-0.047l0.318,-0.045l0.317,-0.043l0.318,-0.041l0.318,-0.04l0.319,-0.038l0.318,-0.036l0.319,-0.034l0.318,-0.032l0.319,-0.03l0.319,-0.029l0.32,-0.026l0.319,-0.025l0.319,-0.023l0.32,-0.021l0.32,-0.02l0.319,-0.017l0.32,-0.016l0.32,-0.014l0.32,-0.012l0.32,-0.01l0.32,-0.008l0.32,-0.006l0.32,-0.005l0.32,-0.003l0.321,-0.001l0.32,0.001Zm-0.618,4l-0.297,0.003l-0.297,0.004l-0.297,0.006l-0.297,0.008l-0.297,0.009l-0.297,0.011l-0.297,0.013l-0.297,0.014l-0.296,0.017l-0.297,0.018l-0.297,0.019l-0.296,0.022l-0.296,0.023l-0.297,0.024l-0.296,0.027l-0.296,0.028l-0.296,0.03l-0.295,0.032l-0.296,0.033l-0.295,0.035l-0.295,0.037l-0.295,0.038l-0.295,0.04l-0.295,0.042l-0.294,0.044l-0.294,0.045l-0.294,0.047l-0.294,0.048l-0.293,0.051l-0.293,0.052l-0.293,0.054l-0.293,0.055l-0.292,0.057l-0.292,0.059l-0.292,0.061l-0.291,0.062l-0.292,0.064l-0.29,0.066l-0.291,0.067l-0.29,0.07l-0.29,0.07l-0.289,0.073l-0.289,0.074l-0.289,0.076l-0.288,0.078l-0.288,0.079l-0.287,0.081l-0.287,0.083l-0.287,0.085l-0.286,0.086l-0.286,0.088l-0.286,0.089l-0.284,0.092l-0.285,0.093l-0.284,0.094l-0.283,0.097l-0.283,0.098l-0.283,0.1l-0.282,0.101l-0.281,0.103l-0.282,0.105l-0.28,0.107l-0.28,0.108l-0.279,0.11l-0.279,0.112l-0.278,0.113l-0.278,0.115l-0.277,0.117l-0.277,0.119l-0.276,0.12l-0.275,0.122l-0.275,0.123l-0.274,0.126l-0.274,0.127l-0.273,0.129l-0.272,0.13l-0.272,0.132l-0.271,0.134l-0.27,0.136l-0.27,0.137l-0.269,0.139l-0.268,0.14l-0.267,0.143l-0.267,0.144l-0.266,0.146l-0.266,0.147l-0.265,0.149l-0.264,0.151l-0.263,0.153l-0.262,0.154l-0.262,0.156l-0.261,0.157l-0.26,0.16l-0.26,0.161l-0.258,0.163l-0.258,0.164l-0.257,0.166l-0.256,0.168l-0.256,0.17l-0.254,0.171l-0.254,0.173l-0.253,0.175l-0.252,0.176l-0.251,0.178l-0.25,0.18l-0.25,0.182l-0.248,0.183l-0.248,0.185l-0.247,0.187l-0.246,0.188l-0.245,0.19l-0.244,0.192l-0.243,0.194l-0.223,0.179l31.946,31.947l32.061,-31.951l-0.217,-0.175l-0.243,-0.194l-0.244,-0.192l-0.245,-0.19l-0.246,-0.188l-0.247,-0.187l-0.247,-0.185l-0.249,-0.183l-0.249,-0.182l-0.251,-0.18l-0.251,-0.178l-0.252,-0.176l-0.253,-0.175l-0.253,-0.173l-0.255,-0.171l-0.255,-0.17l-0.257,-0.168l-0.257,-0.166l-0.258,-0.164l-0.258,-0.163l-0.259,-0.161l-0.261,-0.16l-0.261,-0.157l-0.261,-0.156l-0.263,-0.154l-0.263,-0.153l-0.264,-0.151l-0.265,-0.149l-0.265,-0.147l-0.266,-0.146l-0.267,-0.144l-0.268,-0.143l-0.268,-0.14l-0.269,-0.139l-0.27,-0.137l-0.27,-0.136l-0.271,-0.134l-0.272,-0.132l-0.272,-0.13l-0.273,-0.129l-0.273,-0.127l-0.275,-0.126l-0.274,-0.123l-0.276,-0.122l-0.276,-0.12l-0.276,-0.119l-0.277,-0.117l-0.278,-0.115l-0.279,-0.113l-0.278,-0.112l-0.28,-0.11l-0.28,-0.108l-0.28,-0.107l-0.281,-0.105l-0.282,-0.103l-0.282,-0.101l-0.282,-0.1l-0.283,-0.098l-0.284,-0.097l-0.284,-0.094l-0.284,-0.093l-0.285,-0.092l-0.286,-0.089l-0.285,-0.088l-0.287,-0.086l-0.286,-0.085l-0.287,-0.083l-0.288,-0.081l-0.288,-0.079l-0.288,-0.078l-0.289,-0.076l-0.289,-0.074l-0.289,-0.073l-0.29,-0.07l-0.29,-0.07l-0.29,-0.067l-0.291,-0.066l-0.291,-0.064l-0.292,-0.062l-0.291,-0.061l-0.293,-0.059l-0.292,-0.057l-0.292,-0.055l-0.293,-0.054l-0.294,-0.052l-0.293,-0.051l-0.294,-0.048l-0.293,-0.047l-0.295,-0.045l-0.294,-0.044l-0.295,-0.042l-0.294,-0.04l-0.295,-0.038l-0.295,-0.037l-0.296,-0.035l-0.295,-0.033l-0.296,-0.032l-0.296,-0.03l-0.296,-0.028l-0.296,-0.027l-0.296,-0.024l-0.297,-0.023l-0.296,-0.022l-0.297,-0.019l-0.296,-0.018l-0.297,-0.017l-0.297,-0.014l-0.297,-0.013l-0.297,-0.011l-0.297,-0.009l-0.297,-0.008l-0.297,-0.006l-0.297,-0.004l-0.297,-0.003l-0.297,-0.001l-0.298,0.001Z"/><path d="M23.67,128c5.428,5.438 17.736,17.784 17.736,17.784c9.701,-9.717 9.701,-25.689 0,-35.406l-17.736,17.622Z" style="fill:#19313a;fill-opacity:0;fill-rule:nonzero;"/><path d="M41.519,110.492l0.112,0.115l0.112,0.115l0.11,0.116l0.11,0.117l0.109,0.117l0.108,0.117l0.107,0.118l0.106,0.119l0.105,0.119l0.104,0.119l0.104,0.121l0.102,0.12l0.102,0.122l0.101,0.121l0.1,0.122l0.099,0.123l0.098,0.123l0.097,0.124l0.097,0.124l0.095,0.125l0.095,0.125l0.093,0.126l0.093,0.126l0.092,0.126l0.091,0.127l0.09,0.128l0.09,0.128l0.088,0.128l0.087,0.129l0.087,0.129l0.086,0.13l0.085,0.13l0.084,0.131l0.083,0.131l0.082,0.131l0.081,0.132l0.08,0.132l0.08,0.133l0.078,0.133l0.078,0.133l0.077,0.134l0.076,0.134l0.075,0.134l0.074,0.135l0.073,0.136l0.073,0.135l0.071,0.136l0.071,0.137l0.07,0.136l0.068,0.138l0.068,0.137l0.067,0.138l0.067,0.138l0.065,0.138l0.064,0.139l0.064,0.139l0.062,0.14l0.062,0.139l0.061,0.14l0.06,0.141l0.059,0.14l0.058,0.141l0.057,0.141l0.057,0.142l0.055,0.142l0.055,0.142l0.054,0.142l0.053,0.143l0.051,0.143l0.052,0.143l0.05,0.143l0.049,0.144l0.048,0.144l0.048,0.144l0.047,0.144l0.045,0.145l0.045,0.144l0.044,0.146l0.043,0.145l0.042,0.145l0.042,0.146l0.04,0.146l0.04,0.146l0.038,0.146l0.038,0.147l0.037,0.146l0.036,0.147l0.035,0.147l0.034,0.147l0.033,0.148l0.033,0.147l0.031,0.148l0.031,0.148l0.03,0.148l0.029,0.148l0.028,0.148l0.027,0.149l0.026,0.148l0.025,0.149l0.025,0.149l0.023,0.149l0.023,0.149l0.022,0.149l0.02,0.149l0.02,0.15l0.02,0.149l0.018,0.15l0.017,0.15l0.016,0.149l0.016,0.15l0.015,0.15l0.013,0.15l0.013,0.15l0.012,0.15l0.011,0.15l0.011,0.151l0.009,0.15l0.008,0.15l0.008,0.151l0.007,0.15l0.005,0.15l0.005,0.151l0.004,0.15l0.003,0.151l0.003,0.15l0.001,0.151l0,0.15l0,0.151l-0.001,0.15l-0.003,0.151l-0.003,0.15l-0.004,0.151l-0.005,0.15l-0.005,0.151l-0.007,0.15l-0.008,0.151l-0.008,0.15l-0.009,0.15l-0.011,0.15l-0.011,0.151l-0.012,0.15l-0.013,0.15l-0.013,0.15l-0.015,0.15l-0.016,0.149l-0.016,0.15l-0.017,0.15l-0.018,0.149l-0.02,0.15l-0.02,0.149l-0.02,0.15l-0.022,0.149l-0.023,0.149l-0.023,0.149l-0.025,0.149l-0.025,0.148l-0.026,0.149l-0.027,0.148l-0.028,0.149l-0.029,0.148l-0.03,0.148l-0.031,0.148l-0.031,0.147l-0.033,0.148l-0.033,0.147l-0.034,0.147l-0.035,0.148l-0.036,0.146l-0.037,0.147l-0.038,0.147l-0.038,0.146l-0.04,0.146l-0.04,0.146l-0.042,0.145l-0.042,0.146l-0.043,0.145l-0.044,0.145l-0.045,0.145l-0.045,0.145l-0.047,0.144l-0.048,0.144l-0.048,0.144l-0.049,0.144l-0.05,0.143l-0.052,0.143l-0.051,0.143l-0.053,0.143l-0.054,0.142l-0.055,0.142l-0.055,0.142l-0.057,0.141l-0.057,0.142l-0.058,0.14l-0.059,0.141l-0.06,0.14l-0.061,0.14l-0.062,0.14l-0.062,0.14l-0.064,0.139l-0.064,0.138l-0.065,0.139l-0.067,0.138l-0.067,0.138l-0.068,0.137l-0.068,0.137l-0.07,0.137l-0.071,0.136l-0.071,0.136l-0.073,0.136l-0.073,0.135l-0.074,0.135l-0.075,0.135l-0.076,0.134l-0.077,0.134l-0.078,0.133l-0.078,0.133l-0.08,0.133l-0.08,0.132l-0.081,0.132l-0.082,0.131l-0.083,0.131l-0.084,0.131l-0.085,0.13l-0.086,0.129l-0.087,0.13l-0.087,0.129l-0.088,0.128l-0.09,0.128l-0.09,0.127l-0.091,0.127l-0.092,0.127l-0.093,0.126l-0.093,0.126l-0.095,0.125l-0.095,0.124l-0.097,0.125l-0.097,0.123l-0.098,0.124l-0.099,0.122l-0.1,0.122l-0.101,0.122l-0.102,0.121l-0.102,0.121l-0.104,0.12l-0.104,0.12l-0.105,0.119l-0.106,0.119l-0.107,0.118l-0.108,0.117l-0.109,0.117l-0.11,0.116l-0.11,0.116l-0.112,0.116l-0.112,0.114l-0.113,0.114l-6.833,-6.853l-5.842,-5.858l-2.74,-2.748l-2.321,-2.325l17.736,-17.622l0.113,0.114Zm-12.186,17.52l2.23,2.236l5.843,5.859l3.727,3.738l0.04,-0.059l0.072,-0.109l0.071,-0.109l0.07,-0.11l0.07,-0.109l0.069,-0.11l0.068,-0.111l0.067,-0.111l0.067,-0.111l0.065,-0.111l0.066,-0.112l0.064,-0.112l0.064,-0.113l0.063,-0.112l0.062,-0.113l0.061,-0.114l0.061,-0.114l0.06,-0.114l0.059,-0.114l0.058,-0.115l0.058,-0.115l0.057,-0.115l0.056,-0.115l0.056,-0.116l0.055,-0.116l0.054,-0.117l0.053,-0.117l0.053,-0.117l0.051,-0.117l0.051,-0.117l0.051,-0.118l0.049,-0.118l0.049,-0.118l0.048,-0.119l0.048,-0.119l0.046,-0.119l0.046,-0.119l0.045,-0.12l0.045,-0.12l0.043,-0.119l0.043,-0.121l0.042,-0.12l0.042,-0.121l0.04,-0.121l0.04,-0.121l0.039,-0.121l0.039,-0.122l0.038,-0.122l0.037,-0.122l0.036,-0.122l0.035,-0.122l0.035,-0.123l0.034,-0.122l0.033,-0.123l0.033,-0.123l0.032,-0.123l0.031,-0.124l0.03,-0.123l0.029,-0.124l0.029,-0.124l0.028,-0.124l0.027,-0.124l0.027,-0.125l0.026,-0.124l0.025,-0.125l0.024,-0.125l0.024,-0.124l0.023,-0.125l0.022,-0.126l0.021,-0.125l0.02,-0.125l0.02,-0.126l0.019,-0.125l0.019,-0.126l0.017,-0.126l0.017,-0.126l0.016,-0.126l0.016,-0.126l0.014,-0.126l0.014,-0.126l0.013,-0.126l0.012,-0.127l0.012,-0.126l0.011,-0.127l0.01,-0.126l0.009,-0.127l0.009,-0.126l0.008,-0.127l0.007,-0.127l0.006,-0.127l0.006,-0.126l0.005,-0.127l0.004,-0.127l0.003,-0.127l0.003,-0.127l0.002,-0.127l0.001,-0.127l0,-0.127l0,-0.127l-0.001,-0.126l-0.002,-0.127l-0.003,-0.127l-0.003,-0.127l-0.004,-0.127l-0.005,-0.127l-0.006,-0.127l-0.006,-0.126l-0.007,-0.127l-0.008,-0.127l-0.009,-0.126l-0.009,-0.127l-0.01,-0.127l-0.011,-0.126l-0.012,-0.127l-0.012,-0.126l-0.013,-0.126l-0.014,-0.126l-0.014,-0.127l-0.016,-0.126l-0.016,-0.126l-0.017,-0.125l-0.017,-0.126l-0.019,-0.126l-0.019,-0.126l-0.019,-0.125l-0.021,-0.125l-0.021,-0.126l-0.022,-0.125l-0.023,-0.125l-0.024,-0.125l-0.024,-0.124l-0.025,-0.125l-0.026,-0.125l-0.027,-0.124l-0.027,-0.124l-0.028,-0.124l-0.029,-0.124l-0.029,-0.124l-0.03,-0.123l-0.031,-0.124l-0.032,-0.123l-0.033,-0.123l-0.033,-0.123l-0.034,-0.123l-0.035,-0.122l-0.035,-0.123l-0.036,-0.122l-0.037,-0.122l-0.038,-0.121l-0.039,-0.122l-0.039,-0.121l-0.04,-0.121l-0.04,-0.121l-0.042,-0.121l-0.042,-0.121l-0.043,-0.12l-0.043,-0.12l-0.045,-0.12l-0.045,-0.119l-0.046,-0.119l-0.046,-0.119l-0.048,-0.119l-0.048,-0.119l-0.049,-0.118l-0.049,-0.118l-0.051,-0.118l-0.051,-0.117l-0.051,-0.118l-0.053,-0.117l-0.053,-0.116l-0.054,-0.117l-0.055,-0.116l-0.056,-0.116l-0.056,-0.115l-0.057,-0.116l-0.058,-0.115l-0.058,-0.114l-0.059,-0.115l-0.06,-0.114l-0.061,-0.113l-0.061,-0.114l-0.062,-0.113l-0.063,-0.113l-0.064,-0.112l-0.064,-0.112l-0.066,-0.112l-0.065,-0.112l-0.067,-0.111l-0.067,-0.111l-0.068,-0.11l-0.069,-0.11l-0.07,-0.11l-0.07,-0.109l-0.071,-0.109l-0.072,-0.109l-0.052,-0.077l-11.788,11.712Z"/><path d="M47.524,103.527c9.961,9.945 29.265,10.46 29.265,24.538c0,14.078 -19.304,14.593 -29.265,24.538l21.51,20.81c12.034,-12.008 18.803,-28.331 18.803,-45.332c0,-17 -6.769,-33.323 -18.803,-45.331l-21.51,20.777Z" style="fill:#19313a;fill-opacity:0;fill-rule:nonzero;"/><path d="M69.315,83.032l0.279,0.284l0.278,0.285l0.275,0.287l0.273,0.288l0.272,0.29l0.269,0.292l0.268,0.293l0.265,0.294l0.264,0.296l0.261,0.298l0.26,0.299l0.257,0.3l0.256,0.302l0.254,0.303l0.251,0.305l0.25,0.306l0.248,0.307l0.245,0.309l0.244,0.311l0.242,0.311l0.239,0.313l0.238,0.315l0.235,0.315l0.234,0.317l0.231,0.319l0.23,0.319l0.227,0.321l0.225,0.323l0.224,0.323l0.221,0.325l0.219,0.326l0.217,0.327l0.215,0.329l0.213,0.33l0.211,0.331l0.209,0.332l0.207,0.333l0.204,0.335l0.203,0.335l0.2,0.337l0.199,0.338l0.196,0.34l0.194,0.34l0.192,0.341l0.19,0.343l0.188,0.344l0.185,0.344l0.184,0.346l0.181,0.347l0.179,0.348l0.177,0.349l0.175,0.35l0.173,0.351l0.17,0.352l0.169,0.354l0.166,0.354l0.164,0.355l0.162,0.356l0.16,0.357l0.157,0.358l0.156,0.359l0.153,0.36l0.151,0.36l0.148,0.362l0.147,0.363l0.144,0.363l0.142,0.365l0.14,0.365l0.138,0.366l0.135,0.367l0.133,0.368l0.131,0.369l0.129,0.369l0.127,0.37l0.124,0.371l0.122,0.372l0.119,0.373l0.118,0.373l0.115,0.375l0.113,0.374l0.11,0.376l0.109,0.377l0.106,0.377l0.104,0.377l0.101,0.379l0.099,0.379l0.097,0.38l0.095,0.381l0.092,0.381l0.09,0.382l0.087,0.382l0.086,0.383l0.083,0.384l0.08,0.384l0.079,0.385l0.076,0.385l0.073,0.386l0.071,0.387l0.069,0.387l0.067,0.388l0.064,0.388l0.062,0.389l0.059,0.389l0.057,0.39l0.055,0.39l0.052,0.391l0.05,0.391l0.048,0.392l0.045,0.392l0.043,0.392l0.04,0.393l0.038,0.393l0.035,0.394l0.033,0.394l0.031,0.395l0.028,0.395l0.026,0.395l0.023,0.396l0.021,0.396l0.019,0.396l0.016,0.397l0.013,0.396l0.012,0.398l0.008,0.397l0.006,0.398l0.004,0.398l0.001,0.398l-0.001,0.399l-0.004,0.398l-0.006,0.398l-0.008,0.397l-0.012,0.397l-0.013,0.397l-0.016,0.397l-0.019,0.396l-0.021,0.396l-0.023,0.396l-0.026,0.395l-0.028,0.395l-0.031,0.394l-0.033,0.394l-0.035,0.394l-0.038,0.394l-0.04,0.393l-0.043,0.392l-0.045,0.392l-0.048,0.392l-0.05,0.391l-0.052,0.391l-0.055,0.39l-0.057,0.39l-0.059,0.389l-0.062,0.389l-0.064,0.388l-0.067,0.387l-0.069,0.388l-0.071,0.386l-0.073,0.386l-0.076,0.386l-0.079,0.385l-0.08,0.384l-0.083,0.384l-0.086,0.383l-0.087,0.382l-0.09,0.382l-0.092,0.381l-0.095,0.381l-0.097,0.38l-0.099,0.379l-0.101,0.378l-0.104,0.378l-0.106,0.377l-0.109,0.377l-0.11,0.375l-0.113,0.375l-0.115,0.374l-0.118,0.374l-0.119,0.372l-0.122,0.372l-0.124,0.371l-0.127,0.371l-0.129,0.369l-0.131,0.369l-0.133,0.368l-0.135,0.367l-0.138,0.366l-0.14,0.365l-0.142,0.364l-0.144,0.364l-0.147,0.362l-0.148,0.362l-0.151,0.361l-0.153,0.36l-0.156,0.359l-0.157,0.358l-0.16,0.357l-0.162,0.356l-0.164,0.355l-0.166,0.354l-0.169,0.353l-0.17,0.352l-0.173,0.351l-0.175,0.351l-0.177,0.349l-0.179,0.348l-0.181,0.346l-0.184,0.346l-0.185,0.345l-0.188,0.344l-0.19,0.342l-0.192,0.342l-0.194,0.34l-0.196,0.339l-0.199,0.338l-0.2,0.337l-0.203,0.336l-0.204,0.335l-0.207,0.333l-0.209,0.332l-0.211,0.331l-0.213,0.33l-0.215,0.328l-0.217,0.328l-0.219,0.326l-0.221,0.325l-0.224,0.323l-0.225,0.322l-0.227,0.321l-0.23,0.32l-0.231,0.318l-0.234,0.317l-0.235,0.316l-0.238,0.314l-0.239,0.313l-0.242,0.312l-0.244,0.31l-0.245,0.309l-0.248,0.308l-0.25,0.306l-0.251,0.305l-0.254,0.303l-0.256,0.302l-0.257,0.3l-0.26,0.299l-0.261,0.297l-0.264,0.296l-0.265,0.295l-0.268,0.293l-0.269,0.291l-0.272,0.29l-0.273,0.289l-0.275,0.287l-0.278,0.285l-0.279,0.284l-0.281,0.282l-21.51,-20.81l0.117,-0.116l0.118,-0.116l0.119,-0.114l0.119,-0.113l0.121,-0.113l0.121,-0.112l0.122,-0.111l0.123,-0.111l0.124,-0.109l0.124,-0.109l0.125,-0.108l0.126,-0.107l0.127,-0.106l0.127,-0.106l0.128,-0.105l0.129,-0.104l0.129,-0.103l0.13,-0.103l0.131,-0.102l0.132,-0.101l0.132,-0.101l0.133,-0.1l0.133,-0.099l0.134,-0.098l0.135,-0.098l0.135,-0.098l0.136,-0.096l0.136,-0.096l0.137,-0.095l0.137,-0.095l0.139,-0.094l0.138,-0.093l0.139,-0.093l0.14,-0.092l0.14,-0.092l0.141,-0.091l0.282,-0.181l0.285,-0.178l0.286,-0.176l0.288,-0.174l0.29,-0.172l0.291,-0.17l0.293,-0.168l0.294,-0.167l0.296,-0.164l0.296,-0.163l0.298,-0.162l0.299,-0.16l0.299,-0.158l0.301,-0.157l0.301,-0.156l0.302,-0.154l0.303,-0.153l0.303,-0.152l0.304,-0.151l0.304,-0.15l0.305,-0.149l0.304,-0.148l0.61,-0.293l0.61,-0.291l0.608,-0.289l0.608,-0.286l0.605,-0.286l0.603,-0.285l0.599,-0.285l0.596,-0.285l0.296,-0.143l0.294,-0.144l0.294,-0.143l0.292,-0.144l0.29,-0.145l0.289,-0.145l0.287,-0.146l0.286,-0.146l0.284,-0.147l0.281,-0.148l0.28,-0.149l0.278,-0.15l0.275,-0.151l0.274,-0.152l0.271,-0.153l0.268,-0.154l0.266,-0.156l0.264,-0.157l0.261,-0.158l0.258,-0.16l0.255,-0.162l0.253,-0.163l0.125,-0.082l0.124,-0.082l0.124,-0.083l0.123,-0.084l0.122,-0.084l0.121,-0.084l0.121,-0.085l0.119,-0.085l0.119,-0.086l0.118,-0.086l0.117,-0.087l0.117,-0.087l0.115,-0.088l0.115,-0.088l0.113,-0.089l0.113,-0.09l0.112,-0.089l0.111,-0.091l0.11,-0.091l0.109,-0.092l0.108,-0.092l0.107,-0.093l0.106,-0.093l0.106,-0.094l0.104,-0.095l0.103,-0.095l0.102,-0.096l0.101,-0.097l0.101,-0.097l0.099,-0.098l0.098,-0.098l0.097,-0.1l0.096,-0.099l0.095,-0.101l0.094,-0.101l0.092,-0.102l0.092,-0.103l0.09,-0.103l0.09,-0.105l0.088,-0.104l0.087,-0.106l0.086,-0.107l0.084,-0.107l0.084,-0.108l0.082,-0.108l0.081,-0.11l0.08,-0.11l0.079,-0.111l0.077,-0.112l0.076,-0.113l0.075,-0.114l0.074,-0.114l0.072,-0.115l0.071,-0.116l0.07,-0.117l0.069,-0.118l0.067,-0.119l0.066,-0.12l0.064,-0.12l0.064,-0.122l0.061,-0.122l0.061,-0.123l0.059,-0.124l0.058,-0.126l0.056,-0.126l0.055,-0.127l0.053,-0.128l0.052,-0.129l0.051,-0.13l0.049,-0.13l0.048,-0.132l0.046,-0.133l0.045,-0.134l0.043,-0.135l0.042,-0.136l0.04,-0.137l0.038,-0.138l0.038,-0.139l0.035,-0.141l0.034,-0.141l0.033,-0.142l0.031,-0.144l0.029,-0.144l0.028,-0.146l0.026,-0.146l0.025,-0.148l0.023,-0.149l0.021,-0.15l0.019,-0.151l0.018,-0.153l0.017,-0.153l0.014,-0.155l0.013,-0.156l0.012,-0.157l0.009,-0.158l0.008,-0.16l0.006,-0.161l0.005,-0.161l0.002,-0.164l0.001,-0.164l-0.001,-0.164l-0.002,-0.163l-0.005,-0.162l-0.006,-0.161l-0.008,-0.159l-0.009,-0.159l-0.012,-0.157l-0.013,-0.156l-0.014,-0.154l-0.017,-0.154l-0.018,-0.152l-0.019,-0.152l-0.021,-0.15l-0.023,-0.149l-0.025,-0.147l-0.026,-0.147l-0.028,-0.146l-0.029,-0.144l-0.031,-0.144l-0.033,-0.142l-0.034,-0.141l-0.035,-0.14l-0.038,-0.14l-0.038,-0.138l-0.04,-0.137l-0.042,-0.136l-0.043,-0.135l-0.045,-0.134l-0.046,-0.132l-0.048,-0.132l-0.049,-0.131l-0.051,-0.13l-0.052,-0.129l-0.053,-0.128l-0.055,-0.127l-0.056,-0.126l-0.058,-0.125l-0.059,-0.125l-0.061,-0.123l-0.061,-0.122l-0.064,-0.122l-0.064,-0.12l-0.066,-0.12l-0.067,-0.119l-0.069,-0.117l-0.07,-0.117l-0.071,-0.117l-0.072,-0.115l-0.074,-0.114l-0.075,-0.114l-0.076,-0.113l-0.077,-0.112l-0.079,-0.111l-0.08,-0.11l-0.081,-0.109l-0.082,-0.109l-0.084,-0.108l-0.084,-0.107l-0.086,-0.107l-0.087,-0.105l-0.088,-0.105l-0.09,-0.104l-0.09,-0.104l-0.092,-0.103l-0.092,-0.102l-0.094,-0.101l-0.095,-0.1l-0.096,-0.1l-0.097,-0.099l-0.098,-0.099l-0.099,-0.098l-0.101,-0.097l-0.101,-0.097l-0.102,-0.096l-0.103,-0.095l-0.104,-0.095l-0.106,-0.094l-0.106,-0.093l-0.107,-0.093l-0.108,-0.092l-0.109,-0.092l-0.11,-0.091l-0.111,-0.09l-0.112,-0.09l-0.113,-0.09l-0.113,-0.089l-0.115,-0.088l-0.115,-0.088l-0.117,-0.087l-0.117,-0.087l-0.118,-0.086l-0.119,-0.086l-0.119,-0.085l-0.121,-0.085l-0.121,-0.084l-0.122,-0.084l-0.123,-0.084l-0.124,-0.083l-0.124,-0.082l-0.125,-0.082l-0.253,-0.163l-0.255,-0.162l-0.258,-0.16l-0.261,-0.158l-0.264,-0.157l-0.266,-0.155l-0.268,-0.155l-0.271,-0.153l-0.274,-0.152l-0.275,-0.151l-0.278,-0.15l-0.28,-0.148l-0.281,-0.148l-0.284,-0.148l-0.286,-0.146l-0.287,-0.146l-0.289,-0.145l-0.29,-0.144l-0.292,-0.145l-0.294,-0.143l-0.294,-0.143l-0.296,-0.143l-0.596,-0.286l-0.599,-0.285l-0.603,-0.285l-0.605,-0.285l-0.608,-0.287l-0.608,-0.289l-0.61,-0.291l-0.61,-0.293l-0.304,-0.148l-0.305,-0.149l-0.304,-0.15l-0.304,-0.151l-0.303,-0.152l-0.303,-0.153l-0.302,-0.154l-0.301,-0.156l-0.301,-0.157l-0.299,-0.158l-0.299,-0.16l-0.298,-0.161l-0.296,-0.163l-0.296,-0.165l-0.294,-0.166l-0.293,-0.169l-0.291,-0.17l-0.29,-0.172l-0.288,-0.174l-0.286,-0.176l-0.285,-0.178l-0.282,-0.181l-0.141,-0.091l-0.14,-0.091l-0.14,-0.093l-0.139,-0.092l-0.138,-0.094l-0.139,-0.094l-0.137,-0.095l-0.137,-0.095l-0.136,-0.096l-0.136,-0.096l-0.135,-0.097l-0.135,-0.098l-0.134,-0.099l-0.133,-0.099l-0.133,-0.1l-0.132,-0.101l-0.132,-0.101l-0.131,-0.102l-0.13,-0.102l-0.129,-0.104l-0.129,-0.104l-0.128,-0.105l-0.127,-0.106l-0.127,-0.106l-0.126,-0.107l-0.125,-0.108l-0.124,-0.109l-0.124,-0.109l-0.123,-0.111l-0.122,-0.111l-0.121,-0.112l-0.121,-0.112l-0.119,-0.114l-0.119,-0.114l-0.118,-0.116l-0.117,-0.116l21.51,-20.777l0.281,0.282Zm-15.797,20.266l0.106,0.074l0.122,0.083l0.123,0.082l0.124,0.083l0.124,0.082l0.125,0.082l0.122,0.079l0.257,0.164l0.256,0.16l0.259,0.16l0.262,0.158l0.264,0.157l0.267,0.155l0.269,0.155l0.271,0.154l0.274,0.152l0.276,0.152l0.278,0.15l0.279,0.15l0.282,0.149l0.284,0.148l0.285,0.148l0.288,0.146l0.288,0.146l0.291,0.146l0.292,0.145l0.293,0.144l0.294,0.144l0.294,0.143l0.597,0.287l0.598,0.286l0.602,0.285l0.605,0.285l0.606,0.287l0.608,0.287l0.608,0.289l0.607,0.291l0.306,0.148l0.304,0.148l0.304,0.149l0.304,0.149l0.303,0.151l0.303,0.152l0.302,0.154l0.302,0.155l0.301,0.156l0.3,0.157l0.299,0.16l0.299,0.161l0.298,0.163l0.296,0.165l0.296,0.167l0.294,0.169l0.293,0.171l0.292,0.174l0.29,0.176l0.289,0.179l0.288,0.182l0.281,0.181l0.146,0.096l0.142,0.095l0.141,0.094l0.141,0.096l0.141,0.097l0.14,0.097l0.139,0.098l0.139,0.099l0.138,0.1l0.138,0.101l0.137,0.101l0.137,0.103l0.136,0.103l0.136,0.105l0.135,0.105l0.134,0.107l0.134,0.107l0.133,0.109l0.132,0.11l0.132,0.11l0.131,0.112l0.13,0.113l0.129,0.114l0.129,0.115l0.128,0.116l0.127,0.117l0.126,0.119l0.126,0.12l0.125,0.12l0.123,0.123l0.123,0.123l0.122,0.125l0.121,0.126l0.12,0.127l0.119,0.128l0.118,0.13l0.117,0.132l0.116,0.132l0.115,0.134l0.113,0.135l0.113,0.137l0.111,0.138l0.11,0.139l0.109,0.141l0.108,0.142l0.106,0.144l0.105,0.144l0.104,0.147l0.102,0.148l0.101,0.149l0.099,0.151l0.098,0.152l0.097,0.153l0.095,0.155l0.093,0.157l0.092,0.157l0.09,0.16l0.088,0.16l0.087,0.162l0.085,0.164l0.083,0.164l0.082,0.167l0.079,0.167l0.078,0.169l0.076,0.17l0.074,0.172l0.073,0.173l0.07,0.174l0.068,0.175l0.066,0.177l0.065,0.178l0.062,0.179l0.06,0.181l0.059,0.181l0.056,0.183l0.054,0.184l0.052,0.185l0.049,0.187l0.048,0.187l0.045,0.188l0.044,0.19l0.041,0.191l0.039,0.191l0.037,0.193l0.034,0.194l0.032,0.194l0.031,0.196l0.027,0.197l0.026,0.198l0.024,0.198l0.021,0.2l0.019,0.2l0.017,0.201l0.014,0.203l0.012,0.203l0.01,0.204l0.008,0.204l0.006,0.206l0.003,0.207l0.001,0.207l-0.001,0.208l-0.003,0.206l-0.006,0.206l-0.008,0.205l-0.01,0.203l-0.012,0.204l-0.014,0.202l-0.017,0.201l-0.019,0.201l-0.021,0.199l-0.024,0.199l-0.026,0.197l-0.027,0.197l-0.031,0.196l-0.032,0.194l-0.034,0.194l-0.037,0.193l-0.039,0.192l-0.041,0.19l-0.044,0.19l-0.045,0.188l-0.048,0.188l-0.049,0.186l-0.052,0.185l-0.054,0.184l-0.056,0.183l-0.059,0.182l-0.06,0.18l-0.062,0.179l-0.065,0.178l-0.066,0.177l-0.068,0.175l-0.07,0.175l-0.073,0.172l-0.074,0.172l-0.076,0.17l-0.078,0.169l-0.079,0.168l-0.082,0.166l-0.083,0.164l-0.085,0.164l-0.087,0.162l-0.088,0.161l-0.09,0.159l-0.092,0.158l-0.093,0.156l-0.095,0.155l-0.097,0.153l-0.098,0.152l-0.099,0.151l-0.101,0.149l-0.102,0.148l-0.104,0.147l-0.105,0.145l-0.106,0.143l-0.108,0.142l-0.109,0.141l-0.11,0.139l-0.111,0.138l-0.113,0.137l-0.113,0.135l-0.115,0.134l-0.116,0.133l-0.117,0.131l-0.118,0.13l-0.119,0.128l-0.12,0.128l-0.121,0.125l-0.122,0.125l-0.123,0.124l-0.123,0.122l-0.125,0.121l-0.126,0.119l-0.126,0.119l-0.127,0.117l-0.128,0.117l-0.129,0.115l-0.129,0.113l-0.13,0.113l-0.131,0.112l-0.132,0.111l-0.132,0.109l-0.133,0.109l-0.134,0.107l-0.134,0.107l-0.135,0.105l-0.136,0.105l-0.136,0.103l-0.137,0.103l-0.137,0.102l-0.138,0.1l-0.138,0.1l-0.139,0.099l-0.139,0.098l-0.14,0.098l-0.141,0.096l-0.141,0.096l-0.141,0.095l-0.142,0.094l-0.146,0.096l-0.281,0.181l-0.288,0.182l-0.289,0.179l-0.29,0.176l-0.292,0.174l-0.293,0.171l-0.294,0.169l-0.296,0.167l-0.296,0.165l-0.298,0.163l-0.299,0.161l-0.299,0.16l-0.3,0.157l-0.301,0.157l-0.302,0.154l-0.302,0.154l-0.303,0.152l-0.303,0.151l-0.304,0.15l-0.304,0.148l-0.304,0.148l-0.306,0.148l-0.607,0.291l-0.608,0.289l-0.608,0.288l-0.606,0.286l-0.605,0.285l-0.602,0.285l-0.598,0.286l-0.597,0.287l-0.294,0.143l-0.294,0.144l-0.293,0.145l-0.292,0.144l-0.291,0.146l-0.288,0.146l-0.288,0.147l-0.285,0.147l-0.284,0.148l-0.282,0.149l-0.279,0.15l-0.278,0.151l-0.276,0.151l-0.274,0.153l-0.271,0.153l-0.269,0.155l-0.267,0.156l-0.264,0.156l-0.262,0.159l-0.259,0.159l-0.256,0.16l-0.257,0.165l-0.122,0.079l-0.125,0.081l-0.124,0.082l-0.124,0.083l-0.123,0.082l-0.122,0.083l-0.109,0.076l15.383,14.882l0.109,-0.124l0.244,-0.28l0.241,-0.282l0.24,-0.283l0.237,-0.284l0.236,-0.286l0.234,-0.287l0.233,-0.288l0.23,-0.29l0.228,-0.291l0.227,-0.292l0.224,-0.293l0.223,-0.295l0.221,-0.296l0.219,-0.297l0.217,-0.298l0.215,-0.3l0.213,-0.301l0.211,-0.302l0.21,-0.304l0.207,-0.304l0.206,-0.306l0.203,-0.307l0.202,-0.308l0.199,-0.309l0.198,-0.31l0.196,-0.311l0.194,-0.313l0.192,-0.314l0.189,-0.314l0.188,-0.316l0.186,-0.317l0.184,-0.318l0.182,-0.319l0.18,-0.32l0.178,-0.322l0.176,-0.322l0.174,-0.323l0.172,-0.324l0.17,-0.326l0.168,-0.326l0.166,-0.327l0.164,-0.328l0.162,-0.33l0.16,-0.33l0.158,-0.331l0.156,-0.332l0.154,-0.333l0.152,-0.334l0.149,-0.334l0.148,-0.336l0.146,-0.337l0.143,-0.337l0.142,-0.338l0.139,-0.339l0.138,-0.34l0.135,-0.341l0.133,-0.342l0.131,-0.342l0.129,-0.344l0.127,-0.344l0.125,-0.345l0.123,-0.345l0.121,-0.347l0.118,-0.347l0.117,-0.348l0.114,-0.348l0.112,-0.35l0.11,-0.35l0.108,-0.351l0.106,-0.351l0.104,-0.353l0.101,-0.352l0.1,-0.354l0.097,-0.354l0.095,-0.355l0.093,-0.356l0.091,-0.356l0.089,-0.357l0.086,-0.357l0.085,-0.358l0.082,-0.358l0.08,-0.36l0.077,-0.359l0.076,-0.361l0.073,-0.361l0.072,-0.361l0.069,-0.362l0.066,-0.362l0.065,-0.363l0.062,-0.364l0.061,-0.364l0.058,-0.364l0.055,-0.365l0.054,-0.365l0.051,-0.366l0.049,-0.367l0.047,-0.366l0.044,-0.367l0.043,-0.368l0.04,-0.368l0.038,-0.368l0.035,-0.369l0.033,-0.369l0.031,-0.37l0.029,-0.37l0.027,-0.37l0.024,-0.37l0.022,-0.371l0.019,-0.372l0.018,-0.371l0.015,-0.372l0.012,-0.372l0.011,-0.372l0.008,-0.373l0.006,-0.373l0.003,-0.373l0.001,-0.374l-0.001,-0.373l-0.003,-0.373l-0.006,-0.373l-0.008,-0.373l-0.011,-0.372l-0.012,-0.372l-0.015,-0.372l-0.018,-0.372l-0.019,-0.371l-0.022,-0.371l-0.024,-0.37l-0.027,-0.371l-0.029,-0.369l-0.031,-0.37l-0.033,-0.369l-0.035,-0.369l-0.038,-0.368l-0.04,-0.368l-0.043,-0.368l-0.044,-0.367l-0.047,-0.367l-0.049,-0.366l-0.051,-0.366l-0.054,-0.365l-0.055,-0.365l-0.058,-0.365l-0.061,-0.364l-0.062,-0.363l-0.065,-0.363l-0.066,-0.362l-0.069,-0.362l-0.072,-0.362l-0.073,-0.361l-0.076,-0.36l-0.077,-0.36l-0.08,-0.359l-0.082,-0.358l-0.085,-0.358l-0.086,-0.358l-0.089,-0.357l-0.091,-0.356l-0.093,-0.355l-0.095,-0.355l-0.097,-0.354l-0.1,-0.354l-0.101,-0.353l-0.104,-0.352l-0.106,-0.351l-0.108,-0.351l-0.11,-0.35l-0.112,-0.35l-0.114,-0.348l-0.117,-0.348l-0.118,-0.348l-0.121,-0.346l-0.123,-0.346l-0.125,-0.345l-0.127,-0.344l-0.129,-0.343l-0.131,-0.342l-0.133,-0.342l-0.135,-0.341l-0.138,-0.34l-0.139,-0.339l-0.142,-0.338l-0.143,-0.338l-0.146,-0.336l-0.148,-0.336l-0.149,-0.335l-0.152,-0.334l-0.154,-0.333l-0.156,-0.332l-0.158,-0.331l-0.16,-0.33l-0.162,-0.329l-0.164,-0.328l-0.166,-0.327l-0.168,-0.327l-0.17,-0.325l-0.172,-0.324l-0.174,-0.323l-0.176,-0.323l-0.178,-0.321l-0.18,-0.32l-0.182,-0.319l-0.184,-0.318l-0.186,-0.317l-0.188,-0.316l-0.189,-0.315l-0.192,-0.313l-0.194,-0.313l-0.196,-0.311l-0.198,-0.311l-0.199,-0.309l-0.202,-0.308l-0.203,-0.307l-0.206,-0.305l-0.207,-0.305l-0.21,-0.303l-0.211,-0.302l-0.213,-0.301l-0.215,-0.3l-0.217,-0.298l-0.219,-0.297l-0.221,-0.296l-0.223,-0.295l-0.224,-0.294l-0.227,-0.292l-0.228,-0.291l-0.23,-0.289l-0.233,-0.288l-0.234,-0.287l-0.236,-0.286l-0.237,-0.284l-0.24,-0.283l-0.241,-0.282l-0.244,-0.28l-0.111,-0.127l-15.378,14.854Z"/></g></svg>